<svg width="360" height="519" viewBox="0 0 360 519" fill="none" xmlns="http://www.w3.org/2000/svg">
<path d="M14.3942 269.61L54.412 275.223M14.3942 269.61L27.7354 316.463M14.3942 269.61L-105.359 183.997L-17.7655 214.958M54.412 275.223L27.7354 316.463M54.412 275.223L41.6367 208.539M54.412 275.223L-37.1827 346.449M54.412 275.223L109.762 273.149M75.319 216.279L161.034 218.483L150.836 145.074L140.989 90.8397L69.7746 84.431L28.0557 163.348L75.319 216.279ZM79.7256 156.05L103.377 121.374L150.836 145.074M150.836 145.074L79.7256 156.05M161.034 218.483L122.544 189.277L103.187 121.493L140.288 91.6402M161.034 218.483L103.377 121.374M75.319 216.279L122.546 189.279L79.7256 156.05M75.319 216.279L79.5339 156.076M79.7256 156.05L76.9544 136.102M79.7256 156.05C79.7256 156.05 79.6602 156.059 79.5339 156.076M76.9544 136.102L69.7765 84.4335L103.379 121.377L76.9544 136.102ZM76.9544 136.102L28.0576 163.35C30.1947 162.701 76.1899 156.525 79.5339 156.076M79.5339 156.076L79.5596 155.708M14.1869 269.335L-85.2029 282.197M27.7354 316.463L-37.1827 346.449L-85.2029 282.197L-88.3283 165.981M-85.2029 282.197L-17.7655 214.958M-85.2029 282.197L-56.9368 296.237M27.7354 316.463L118.369 299.427L109.762 273.149L41.6367 208.539L-88.3283 165.981L-106.53 183.587L-56.9368 296.237M-88.3283 165.981L-17.7655 214.958M-56.9368 296.237L27.7354 316.463M-56.9368 296.237L13.7049 269.268L41.6367 208.539M-56.9368 296.237L-17.7655 214.958M-56.9368 296.237L-37.1827 346.449M41.6367 208.539L-17.7655 214.958M-17.7655 214.958L13.4976 268.993L-37.1827 346.449M-17.7655 214.958L109.762 273.149M118.369 299.427L53.7884 274.396" stroke="#E8E8E8" stroke-width="1.78091" stroke-miterlimit="10"/>
<path opacity="0.6" d="M187.381 305.003L237.082 246.935M212.254 315.606L187.381 305.003L199.213 274.143M212.254 315.606L192.664 405.411L118.491 299.576L232.299 149.293L275.122 202.052L304.172 306.366L281.897 299.202L187.381 305.003M237.082 246.935L161.342 218.999M237.082 246.935L275.122 202.052M237.082 246.935L118.491 299.576M237.082 246.935L212.254 315.606M237.082 246.935L282.06 299.418L274.163 202.299M212.254 315.606L199.213 274.143L161.342 218.999L275.122 202.052M118.491 299.576L199.213 274.143M118.491 299.576L280.287 364.203L212.254 315.606M118.491 299.576L187.705 305.433M212.254 315.606L281.897 299.202M281.897 299.202L280.45 364.42L192.611 405.786L304.148 306.556L280.423 364.607" stroke="#E8E8E8" stroke-width="1.78091" stroke-miterlimit="10"/>
<path d="M143.679 88.8107C142.559 87.3252 140.447 87.0291 138.961 88.1493C137.476 89.2695 137.179 91.3818 138.3 92.8673C139.42 94.3528 141.532 94.6489 143.018 93.5287C144.503 92.4085 144.799 90.2962 143.679 88.8107Z" fill="#E8E8E8"/>
<path d="M32.5753 159.939C30.6931 157.443 27.1439 156.946 24.648 158.828C22.152 160.71 21.6544 164.259 23.5366 166.755C25.4188 169.251 28.968 169.749 31.4639 167.867C33.9599 165.984 34.4574 162.435 32.5753 159.939Z" fill="#E8E8E8"/>
<path d="M127.924 185.219C125.684 182.248 121.459 181.656 118.488 183.897C115.517 186.137 114.925 190.362 117.165 193.333C119.406 196.304 123.63 196.896 126.601 194.655C129.572 192.415 130.164 188.19 127.924 185.219Z" fill="#E8E8E8"/>
<path d="M75.1542 80.3737C72.9138 77.4027 68.6892 76.8105 65.7182 79.0508C62.7473 81.2912 62.155 85.5159 64.3954 88.4868C66.6358 91.4578 70.8604 92.05 73.8313 89.8097C76.8023 87.5693 77.3946 83.3447 75.1542 80.3737Z" fill="#E8E8E8"/>
<path d="M107.813 118.22C105.931 115.724 102.382 115.226 99.8858 117.109C97.3898 118.991 96.8923 122.54 98.7744 125.036C100.657 127.532 104.206 128.029 106.702 126.147C109.198 124.265 109.695 120.716 107.813 118.22Z" fill="#E8E8E8"/>
<path d="M79.8386 212.87C77.9564 210.374 74.4072 209.877 71.9113 211.759C69.4153 213.641 68.9178 217.19 70.7999 219.686C72.6821 222.182 76.2313 222.68 78.7272 220.797C81.2232 218.915 81.7207 215.366 79.8386 212.87Z" fill="#E8E8E8"/>
<path d="M155.355 141.666C153.473 139.17 149.924 138.672 147.428 140.554C144.932 142.436 144.434 145.986 146.316 148.482C148.199 150.978 151.748 151.475 154.244 149.593C156.74 147.711 157.237 144.162 155.355 141.666Z" fill="#E8E8E8"/>
<path d="M82.9525 153.616C81.6087 151.834 79.0747 151.479 77.2927 152.823C75.5106 154.167 75.1554 156.701 76.4992 158.483C77.843 160.265 80.377 160.62 82.159 159.276C83.941 157.932 84.2963 155.398 82.9525 153.616Z" fill="#E8E8E8"/>
<path d="M17.8274 266.158C16.1106 263.882 12.8732 263.428 10.5965 265.145C8.31975 266.862 7.86588 270.099 9.58273 272.376C11.2996 274.652 14.537 275.106 16.8137 273.389C19.0904 271.673 19.5443 268.435 17.8274 266.158Z" fill="#E8E8E8"/>
<path d="M30.4838 314.39C29.3393 312.872 27.181 312.57 25.6632 313.714C24.1454 314.859 23.8428 317.017 24.9873 318.535C26.1319 320.053 28.2902 320.355 29.808 319.211C31.3258 318.066 31.6284 315.908 30.4838 314.39Z" fill="#E8E8E8"/>
<path d="M123.519 294.249C121.23 291.214 116.913 290.609 113.877 292.898C110.842 295.187 110.237 299.503 112.526 302.539C114.815 305.575 119.131 306.18 122.167 303.891C125.203 301.602 125.808 297.285 123.519 294.249Z" fill="#E8E8E8"/>
<path d="M59.9087 271.077C57.6196 268.041 53.303 267.436 50.2674 269.725C47.2318 272.015 46.6266 276.331 48.9158 279.367C51.2049 282.402 55.5214 283.008 58.5571 280.718C61.5927 278.429 62.1978 274.113 59.9087 271.077Z" fill="#E8E8E8"/>
<path d="M113.885 270.04C112.168 267.763 108.93 267.309 106.654 269.026C104.377 270.743 103.923 273.98 105.64 276.257C107.357 278.534 110.594 278.988 112.871 277.271C115.148 275.554 115.601 272.317 113.885 270.04Z" fill="#E8E8E8"/>
<path d="M-54.1883 294.163C-55.3329 292.646 -57.4912 292.343 -59.009 293.488C-60.5268 294.632 -60.8294 296.791 -59.6848 298.308C-58.5403 299.826 -56.382 300.129 -54.8642 298.984C-53.3464 297.84 -53.0438 295.681 -54.1883 294.163Z" fill="#E8E8E8"/>
<path d="M-78.0572 276.808C-80.9186 273.014 -86.3143 272.257 -90.1089 275.119C-93.9034 277.98 -94.6598 283.376 -91.7984 287.17C-88.937 290.965 -83.5413 291.721 -79.7468 288.86C-75.9523 285.999 -75.1958 280.603 -78.0572 276.808Z" fill="#E8E8E8"/>
<path d="M-31.686 342.303C-33.9751 339.268 -38.2917 338.662 -41.3273 340.952C-44.3629 343.241 -44.9681 347.557 -42.6789 350.593C-40.3898 353.628 -36.0733 354.234 -33.0376 351.945C-30.002 349.655 -29.3969 345.339 -31.686 342.303Z" fill="#E8E8E8"/>
<path d="M-12.2688 210.812C-14.558 207.777 -18.8745 207.171 -21.9101 209.46C-24.9457 211.75 -25.5509 216.066 -23.2618 219.102C-20.9726 222.137 -16.6561 222.743 -13.6205 220.453C-10.5848 218.164 -9.9797 213.848 -12.2688 210.812Z" fill="#E8E8E8"/>
<path d="M-85.8546 164.115C-86.9992 162.597 -89.1575 162.295 -90.6753 163.439C-92.1931 164.584 -92.4957 166.742 -91.3511 168.26C-90.2066 169.778 -88.0483 170.08 -86.5305 168.936C-85.0127 167.791 -84.7101 165.633 -85.8546 164.115Z" fill="#E8E8E8"/>
<path d="M-101.308 179.649C-103.598 176.613 -107.914 176.008 -110.95 178.297C-113.985 180.586 -114.591 184.903 -112.301 187.938C-110.012 190.974 -105.696 191.579 -102.66 189.29C-99.6245 187.001 -99.0193 182.684 -101.308 179.649Z" fill="#E8E8E8"/>
<path d="M47.9578 203.772C45.0964 199.977 39.7007 199.221 35.9062 202.082C32.1117 204.944 31.3552 210.34 34.2167 214.134C37.0781 217.929 42.4738 218.685 46.2683 215.824C50.0628 212.962 50.8193 207.566 47.9578 203.772Z" fill="#E8E8E8"/>
<path d="M235.91 146.428C234.341 144.348 231.384 143.933 229.304 145.502C227.224 147.07 226.809 150.028 228.378 152.108C229.946 154.188 232.904 154.602 234.984 153.034C237.064 151.465 237.478 148.508 235.91 146.428Z" fill="#E8E8E8"/>
<path d="M198.01 401.396C195.77 398.425 191.545 397.833 188.574 400.073C185.603 402.314 185.011 406.538 187.251 409.509C189.492 412.48 193.716 413.073 196.687 410.832C199.658 408.592 200.25 404.367 198.01 401.396Z" fill="#E8E8E8"/>
<path d="M165.202 216.09C163.612 213.982 160.615 213.562 158.507 215.151C156.398 216.741 155.978 219.738 157.568 221.847C159.158 223.955 162.155 224.375 164.263 222.785C166.371 221.196 166.792 218.198 165.202 216.09Z" fill="#E8E8E8"/>
<path d="M306.802 304.525C305.742 303.119 303.743 302.839 302.338 303.899C300.933 304.959 300.653 306.957 301.712 308.362C302.772 309.768 304.771 310.048 306.176 308.988C307.581 307.928 307.861 305.93 306.802 304.525Z" fill="#E8E8E8"/>
<path d="M285.672 296.46C284.082 294.352 281.085 293.932 278.976 295.522C276.868 297.111 276.448 300.109 278.038 302.217C279.628 304.325 282.625 304.745 284.733 303.156C286.841 301.566 287.262 298.568 285.672 296.46Z" fill="#E8E8E8"/>
<path d="M189.739 303.558C188.679 302.153 186.681 301.873 185.275 302.932C183.87 303.992 183.59 305.991 184.65 307.396C185.709 308.801 187.708 309.081 189.113 308.022C190.519 306.962 190.799 304.963 189.739 303.558Z" fill="#E8E8E8"/>
<path d="M283.496 361.928C282.171 360.172 279.673 359.821 277.916 361.146C276.16 362.471 275.809 364.969 277.134 366.726C278.459 368.482 280.957 368.833 282.714 367.508C284.47 366.183 284.821 363.685 283.496 361.928Z" fill="#E8E8E8"/>
<path d="M200.787 273.045C200.151 272.202 198.952 272.034 198.109 272.67C197.265 273.306 197.097 274.505 197.733 275.348C198.369 276.191 199.568 276.359 200.411 275.723C201.254 275.088 201.423 273.889 200.787 273.045Z" fill="#E8E8E8"/>
<path d="M215.998 312.919C214.43 310.839 211.472 310.425 209.392 311.993C207.312 313.562 206.898 316.519 208.466 318.599C210.035 320.679 212.992 321.094 215.072 319.526C217.152 317.957 217.567 314.999 215.998 312.919Z" fill="#E8E8E8"/>
</svg>
