<svg width="153" height="20" viewBox="0 0 153 20" fill="none" xmlns="http://www.w3.org/2000/svg">
<path d="M150.914 5.14877L151.016 4.7276L148.686 4.93819C148.815 4.25323 148.34 4.08476 147.72 4.08476C146.738 4.08476 146.959 4.80518 146.126 4.72538L146.336 3.87639L142.81 3.25572L142.717 3.65915H142.404C142.182 3.56383 142.142 3.07173 141.976 3.02074C141.183 2.76804 141.559 3.47961 141.429 3.64364C141.353 3.73674 141.114 3.63034 141.021 3.6658C141.034 3.43083 141.18 3.06065 141.234 2.81681C140.577 3.00745 140.061 2.71928 139.536 3.24241L139.418 2.58849L137.714 2.79243C137.43 2.06979 135.86 2.40229 135.062 2.29146C134.75 2.24713 134.393 1.94565 134.123 1.94787C133.963 1.94787 134.131 2.62174 133.582 2.38677L133.794 1.7528L132.229 1.74615L131.884 2.17619C131.877 2.0055 131.808 1.73285 131.675 1.64196C131.502 1.52448 127.925 1.25183 127.506 1.30725C127.045 1.3671 127.351 1.83703 126.887 1.74837L126.196 1.15651L120.72 0.897159L120.505 1.74837C119.82 0.558005 119.814 0.883859 118.796 0.779675C117.615 0.657757 116.38 0.773022 115.199 0.693221C114.434 0.642237 113.425 0.409487 112.656 0.252102L112.111 0.897159C112.102 0.66219 112.022 0.438307 111.8 0.325256C111.647 0.247672 108.436 0.0415167 108.6 0.68214C107.986 -0.401821 107.265 0.560222 106.48 0.467121C106.161 0.429437 105.955 0.0836319 105.634 0.0636817C105.297 0.0437315 103.827 0.0415172 103.477 0.0592507C102.991 0.0836343 102.741 0.88829 102.114 0.679921L102.218 0.249883L100.954 0.69544C100.462 -0.53039 99.1808 0.227719 98.1789 0.27427C97.0395 0.32747 95.8647 0.159 94.8184 0.0991495C94.1467 0.0614658 92.7014 0.136835 92.0386 0.26762C90.6377 0.546923 89.6801 0.123532 88.2149 0.285351C87.1708 0.400619 86.9779 0.903809 86.9004 0.903809C86.6033 0.903809 85.3154 0.309736 84.7923 0.349637C84.4864 0.371803 83.8258 0.766377 83.7261 1.10775C83.3891 1.07006 83.1298 0.467123 83.0522 0.46269C82.4781 0.418356 80.7646 0.713177 80.3168 1.10775C80.421 0.467124 77.8518 0.728691 77.5925 0.88386C77.3885 1.00578 77.5238 1.3272 77.342 1.32277L76.7147 0.677709L75.0012 1.95896V0.892728L71.388 1.10775L71.4944 1.53335C71.0599 1.61315 70.9469 1.1543 70.5323 1.11218C70.0868 1.06784 67.6706 1.27843 67.1563 1.34937C66.8415 1.39148 66.509 1.47571 66.212 1.58655L66.0701 2.17841L65.5869 2.07422L65.1945 1.37375L62.5611 1.54C62.4658 1.60872 63.215 2.18284 62.9845 2.38899C62.9601 2.41116 62.2885 2.50647 62.3527 2.22495L62.233 1.73729C61.6744 1.78605 61.107 1.69295 60.5506 1.75945C59.655 1.86364 60.3976 2.00772 59.2294 1.80822C58.8415 1.74171 58.4092 2.17176 57.9859 2.16067C57.6356 2.15402 57.3829 1.83482 56.9751 1.81487C56.0706 1.77497 55.2128 2.34244 54.3882 2.61952L54.2685 2.17841L53.9537 2.60179C53.1712 1.53335 51.4777 2.04319 51.0764 3.23798C50.5378 3.2003 50.7284 2.26042 50.6486 2.18284C50.5777 2.1119 48.9506 2.17619 48.6536 2.19392C47.594 2.25377 46.7251 2.21387 45.7076 2.23382C44.9894 2.24712 42.9501 2.28703 43.4266 3.2402C42.4358 2.95425 42.1343 2.06314 40.873 2.60622L41.088 3.24241C40.2435 3.56162 39.8844 2.78578 39.4499 2.64834C38.8048 2.44441 35.9387 2.9476 35.0254 3.02961C33.6643 3.15153 31.6605 2.67495 30.7738 3.88526L30.459 3.88082L30.1531 3.29562C29.2443 3.79659 27.4532 2.86336 27.2603 4.09584C26.5953 3.2668 25.6244 3.75004 24.6114 3.87196C21.2154 4.28426 17.7951 4.67661 14.3902 5.14877C13.3772 5.29064 11.1982 4.834 10.8879 6.00884L10.3625 5.37487C9.61991 6.4145 8.4229 5.23965 8.00616 6.2283L7.39657 6.00441C7.28574 6.50539 6.9089 6.28593 6.84905 6.34357C6.55202 6.63395 6.57196 7.25462 6.10202 7.49624L5.78282 6.64725C5.26411 7.06399 5.40377 6.51647 5.25525 6.4677C4.66783 6.27485 3.2691 7.41866 2.59522 7.07507L3.01861 7.92407H1.74623L1.95682 7.28787C0.934923 7.66471 -0.432776 9.25186 1.10339 9.94569C1.12777 10.1607 -0.825131 10.2427 0.409565 10.7237L0.340848 11.3378L1.11004 11.6503L0.256613 12.2887L1.10782 12.8163L0.0460314 13.3527L0.467201 13.4547C0.161298 13.8626 0.713251 14.6185 0.651183 14.8446C0.622366 14.9443 0.340846 14.9399 0.33198 14.9864C0.210062 15.6271 0.00834232 18.2272 0.511531 18.5309C0.711033 18.6506 1.14329 18.4733 1.28737 18.5974C1.38491 18.6817 1.29403 19.1228 1.52678 19.3112C1.662 19.4198 2.91886 19.688 3.02083 19.6282L3.01639 19.0917C3.49298 19.2137 3.75012 18.9233 4.14912 18.8368C4.51931 18.757 4.6235 19.1494 5.35944 18.5642L5.15107 19.5262L5.57224 19.6282C5.31953 18.726 6.8557 19.1161 6.29709 17.9169C6.22394 17.8748 6.07542 17.9657 5.99784 17.9258C5.7673 17.8083 4.55477 17.0679 4.72324 16.864H5.88922L5.78504 17.2851L6.72935 16.6778C7.26801 16.813 7.54066 16.8751 7.91306 17.0746C8.30763 17.0258 8.40295 17.2319 8.33867 16.649H7.48745L7.70247 16.0105C7.81996 15.8953 9.10342 16.6778 8.77535 17.0635L10.0389 17.0723C10.3669 16.5913 9.15441 16.6157 9.61548 16.2234C10.1098 15.8022 10.2229 16.8684 10.6773 16.6467V15.7977L9.4049 16.2211L9.18988 15.3721H9.8305L9.6177 14.736L10.5687 14.9465L10.4711 15.5849L11.5329 14.736C11.227 15.268 11.5551 15.678 11.7878 16.1812C12.2157 16.0682 13.7917 16.926 13.6609 16.0105L12.8097 15.8C13.1733 15.7667 13.5834 15.8709 13.9358 15.7911C13.9713 15.7844 14.4878 15.3987 14.5099 15.3721C14.3038 16.1302 15.2303 15.6603 15.3634 15.7955L15.4675 16.6512C15.7402 15.7756 15.738 15.7046 16.6357 16.0083C16.4451 15.3278 16.3919 15.5051 15.9973 15.3721L16.7288 14.164L17.4869 14.3081L17.2741 15.1571L18.3359 15.2657L17.4869 15.3721C17.5135 15.8133 18.5487 15.9352 18.7372 15.7667L19.0719 14.9887L19.8255 15.1571L18.551 13.8781C18.828 13.0535 19.3157 14.3901 19.6127 14.0931L19.1871 13.2463H19.6083L20.6723 14.3037L19.8255 14.7382L20.4617 15.5827L19.7036 15.7822C19.6305 15.7844 19.6327 14.8867 18.9743 15.6936C19.3733 15.8687 19.4775 15.9596 19.3999 16.4384L20.464 16.2278L20.3598 16.6534H21.3107C21.579 15.5761 20.7189 16.3985 20.6768 15.698L21.528 15.3744L21.313 14.7382C22.4789 14.3414 22.5077 15.0241 23.4343 15.3832C23.5629 15.5694 22.9755 16.5403 22.5898 16.4428C22.5033 16.7731 23.1971 16.7044 23.3191 16.6667C23.5053 16.6091 23.4277 16.1325 23.6449 15.9086C24.0151 15.5273 25.2276 15.5384 25.5623 14.8401L25.139 14.3126C25.8439 14.3525 26.3072 14.6185 26.9433 14.1729L27.6881 14.6318L27.0475 15.0574C27.2714 15.4409 27.2315 16.5758 27.901 16.4362L27.4776 15.5872L28.5371 15.4763L27.9076 15.0574L28.3155 13.7673L29.8117 13.4591L29.1733 14.7337L28.9627 14.3104L28.3266 14.6296C29.825 15.7379 29.1445 14.7337 29.3684 14.6207L30.3437 14.5232L30.2373 14.0975C31.1972 14.3879 32.1902 13.9778 32.1548 12.8185L33.0016 13.0313L32.7887 12.3951L33.3252 12.1801L34.0633 12.8207L34.2806 11.7612L33.6422 11.7567L33.7441 11.1227L35.1296 11.3333L34.7062 12.6079H35.3446L35.2382 12.1823L36.617 12.6124L35.9919 12.8362L35.9786 13.5412L36.4042 13.6786C35.9852 14.6229 35.0077 13.5412 34.2163 13.6719L31.942 15.166L33.3208 16.4428L32.9705 15.6182L32.5804 15.4874L33.8528 15.166L33.4294 16.0172L33.7996 16.066C33.3008 16.864 34.5665 16.1812 34.704 15.9064L34.2806 15.3788H34.919L34.4934 14.3148C35.2338 14.0133 35.3756 14.716 35.4355 14.716C36.2845 14.6961 36.8697 14.0377 37.047 13.253L36.4086 13.0402C36.9628 13.202 37.4638 11.575 36.6214 12.189V11.7634L37.047 11.6592L36.6214 10.6971L37.4527 11.1538C37.262 11.7789 37.0847 12.3464 37.8938 11.8099L37.9093 11.3466L38.7472 11.3355L38.5344 10.6994L39.7979 10.921C39.5319 11.8476 40.2612 11.8432 40.2324 12.6124C39.8068 12.67 40.2723 12.0715 39.7048 12.1868C39.5873 12.2111 39.5364 13.0557 39.1728 12.6124C38.9223 12.3065 39.9531 11.9163 39.2792 11.555L37.466 12.302L37.6854 13.6786C38.5876 13.2397 38.2086 13.7828 38.5366 13.9911C38.7583 14.1308 39.0731 14.0443 39.2194 14.1241C39.43 14.2372 39.3901 14.5365 39.4898 14.5365C39.9841 14.5409 40.0839 13.9734 40.2346 13.8914H39.8112C39.6915 12.5215 40.6602 12.5414 40.2346 13.8914C40.3388 13.836 40.6912 13.9313 40.8708 13.8914L40.4474 13.4702L42.1454 13.8936L41.7176 12.7276L42.1432 12.4084C41.5358 12.2466 41.7331 11.4708 40.658 11.5506L40.9949 10.2715L40.0218 10.061L40.6602 9.84815L40.4452 9.21418C41.4316 9.16319 41.1678 10.8102 41.3851 11.1427L42.3582 11.3422L41.9326 11.7678C42.4979 12.7831 42.6065 11.7789 42.6752 11.7612C43.0742 11.6548 43.5596 12.3419 44.0584 12.5126L42.9988 12.619C42.9079 13.2353 43.5885 13.2197 43.9653 13.4591C44.2756 12.7454 44.7943 12.5791 45.5502 12.6168C45.5968 12.3308 43.9941 11.4176 44.8099 11.1316C45.384 10.9299 45.0116 11.8543 45.1268 11.9828L46.4037 11.6503L47.2571 13.0446C47.7691 13.0069 47.3967 11.555 47.9842 11.7811L48.7401 12.1978L47.8888 12.4084C47.8822 13.8936 48.9795 12.7387 49.1657 12.087C47.7891 11.8786 48.9218 11.3223 49.589 11.1294L50.0146 11.9784C49.8927 11.391 50.7905 11.8033 51.2715 11.3178L51.0831 10.2782L52.5705 10.4932L52.156 11.2425L51.5087 11.1294V11.7678L52.3821 11.6703L52.9163 10.7016L54.6985 11.1338C54.6874 11.6459 53.834 11.2868 53.6323 11.4397C53.3352 11.6636 53.6301 12.0471 53.5214 12.2067C53.3862 12.4106 52.4264 12.4638 53.3086 13.2064C53.6833 12.9914 54.1443 13.1111 54.4879 13.0468C54.5323 13.1266 54.4591 13.3882 54.4835 13.5456L55.0199 13.6897C55.1817 13.1554 56.0884 13.1067 56.6137 13.0446L55.7625 12.1956C55.9066 11.9429 56.4364 10.9787 56.4009 10.8168L55.5497 10.2826L56.1837 9.75284L57.0371 9.64421C56.7955 10.0321 56.4209 9.83707 56.6093 10.5752L57.0393 10.808L56.6137 11.77L57.8861 11.3422L57.4649 10.706C58.9147 11.156 57.5093 12.4328 58.3228 13.4658C59.2206 13.632 58.9679 12.5082 60.0141 12.8318L59.1629 12.1912C59.0632 12.0449 60.0895 10.788 60.2269 11.453C60.3444 12.0161 59.6063 11.5085 59.8013 12.1956L60.4198 12.2067L60.4397 13.0491C60.7479 13.089 61.1646 13.0513 61.2865 12.7254C61.5503 12.0316 60.8653 12.3574 60.8653 11.985L61.7166 11.7722L62.1399 12.1934L61.9294 11.5572L62.7783 11.7722L62.1422 12.517C62.0025 12.9205 62.4791 12.7853 62.5234 12.9338C62.5656 13.0756 62.4259 13.8847 62.3527 14.1086L62.9801 13.5966L62.7783 12.6234L63.8379 13.0424L63.931 12.6367L64.6913 12.834L64.4808 11.7722L64.8266 12.2001C65.394 12.2444 65.6911 12.3441 65.8595 11.7722L66.0724 12.189L65.7531 12.8318C66.1632 12.9493 66.9657 13.0956 67.2583 13.366C67.4711 13.5611 67.2583 13.816 67.3004 13.9756C67.5287 14.8091 68.8343 14.1197 67.6662 13.5833L68.5174 12.4106L67.2405 12.1978L67.0322 12.6212L66.8172 12.0892C67.3647 11.8831 67.8191 11.8343 67.8834 11.1338L68.3201 11.258L68.6526 12.0028C69.2156 11.7257 69.9915 11.985 70.4481 11.8942C70.9158 11.8011 71.2173 10.6794 72.3456 11.1316L71.501 10.6018L72.3434 9.8548C72.5517 11.8277 74.6532 10.8545 75.8612 11.0186C76.5462 11.1094 78.1733 12.5503 78.938 11.136L77.7166 11.3045L77.2356 11.023L77.9782 9.43363C78.3151 10.3181 79.5299 10.7814 79.1508 11.77L79.787 11.5594L79.7937 12.2754L79.3658 12.619L80.8466 13.0402C80.7623 12.3065 81.3963 12.5791 81.1702 11.7722C81.8308 12.4284 82.2165 12.5459 83.0877 12.8296L83.4024 12.3065L82.3428 12.1956L82.4337 11.3311L83.5975 11.1139L83.6174 10.2826C84.0231 10.2516 84.5485 10.2228 84.6815 10.7016L84.1362 10.9099L84.2315 11.7545L83.8325 11.9806L84.9076 11.8809C84.9741 10.706 85.5814 11.0341 85.7654 10.7925C86.477 9.85924 84.9031 8.19228 87.6607 9.43141C87.5565 10.3979 86.3174 9.9213 86.1755 10.8146C86.0891 11.3555 86.5701 11.0806 86.8073 11.1316L86.1755 11.6614L86.3839 12.404H87.4479L87.2329 11.7678L87.7693 11.5506C87.94 11.9917 87.9954 12.0515 88.5097 11.9762L87.2351 10.276C87.9688 10.3491 87.7405 11.2247 88.7225 10.9122L88.0863 10.3824L89.1459 10.0632C89.1503 10.972 88.2126 11.4929 89.2545 12.1868L89.5759 11.3378C90.017 11.2624 90.5113 11.9717 90.5712 11.9806C90.9724 12.0515 91.3537 11.7789 91.6995 11.7634C91.6795 11.8964 91.7039 12.0471 91.7017 12.1823C92.0985 12.1668 92.513 12.4195 92.8832 12.4217C93.2578 12.4217 93.1669 12.0781 93.229 12.0427C93.3354 11.9828 93.8297 12.3286 94.0337 11.8676C94.2465 11.3865 93.5571 11.6836 93.3731 11.4198C93.1581 11.1117 93.2224 10.4666 92.5463 10.4866C92.779 10.4223 93.0317 10.1585 93.3953 10.2715L92.9719 9.63535L93.8164 9.52895L93.3975 9.10334C94.2487 8.68882 94.0448 8.56247 93.9273 7.72013L94.8827 8.14795L94.2465 8.78193C95.4213 9.26516 95.6186 9.18093 96.4787 8.35854L96.7912 8.78193C96.7114 8.09918 98.6821 7.47851 98.9215 7.72013V8.35632L98.3895 7.92407L97.4385 8.67552C98.1146 9.51121 99.5444 10.0898 98.4981 8.57356L99.3449 8.14352C99.4047 9.2563 100.342 8.43612 100.633 8.65779L100.839 9.63313L101.686 9.41811L101.69 10.2693H103.178C102.77 10.0055 103.007 9.4425 102.965 9.41811C102.821 9.3361 101.954 9.99224 102.116 8.77971L102.965 8.56912L101.253 8.69104C101.001 8.49154 101.098 7.99057 101.052 7.9285C101.036 7.90855 100.646 8.01495 100.613 7.79328L100.841 5.37487L101.477 5.69408L100.843 6.11525C101.061 6.73814 101.661 7.50289 102.411 7.27457C102.878 7.1327 102.539 6.42115 102.962 6.43888L102.971 8.128L103.814 8.35632L104.237 7.50289C104.219 8.32307 105.345 8.07258 105.308 8.77749C105.829 8.13908 105.953 7.24132 107.004 8.1413C106.808 7.71348 107.447 7.14822 107.782 7.10389C108.449 7.01522 107.992 8.1413 108.704 7.9285L108.897 7.32113L108.283 6.86892C108.823 6.6406 109.555 7.32778 109.863 7.30783C109.974 7.30118 110.641 6.23938 111.585 6.01771L111.894 6.4411C112.233 5.30837 112.211 6.05318 112.745 6.4411L113.066 5.37931L113.173 7.29231L113.658 7.01965L113.598 6.23273H114.662L114.276 6.76031L114.556 7.50289C114.862 7.17704 115.052 6.82459 115.511 7.08172C115.7 6.78025 114.678 5.78275 115.613 5.65196C116.371 5.54556 116.061 6.48765 116.174 6.62952L118.065 6.86892L118.054 5.81378L117.265 5.48792C117.774 5.57881 118.652 5.32832 118.701 5.37709C118.748 5.42364 118.557 6.31918 119.424 6.24159C119.497 6.23494 119.96 5.33497 120.401 5.37487L119.767 6.22386C120.561 6.29036 121.41 6.5076 122.101 6.01328L122.319 6.86227L123.378 6.43888L123.165 7.07285C123.815 7.06399 124.134 6.481 124.761 6.33027C125.406 6.1751 125.919 6.75365 126.566 6.64725L125.719 6.21721L125.927 5.16207L124.458 5.17094L124.014 6.348L123.165 6.22164L124.017 6.01328L124.218 4.834C124.759 5.05567 125.258 4.51258 125.595 4.50815C125.686 4.50815 126.364 5.71624 126.989 5.59211C127.16 6.27263 126.402 5.74284 126.568 6.43888L128.055 6.64947L127.415 5.69629L128.268 6.01106C128.029 5.43694 128.191 5.00912 127.419 5.15986L128.055 4.52366H126.781L126.991 3.88526C125.843 4.37293 125.819 3.12272 126.559 2.71263C126.785 2.58628 127.308 3.14045 127.206 2.39564L127.628 3.24241L126.776 3.34882L127.413 3.55941L127.204 4.30643L129.543 3.88304C129.266 4.42613 128.35 4.32416 128.293 5.0867C128.246 5.68964 128.918 5.48571 129.117 5.58324L128.904 4.52145H129.753V5.58546H129.117C129.88 5.96008 130.15 5.89579 130.82 6.1485C131.112 6.25933 131.318 6.83124 131.879 6.64725L130.609 5.26404L131.024 4.94705L131.558 5.58546L131.879 5.16207L131.773 4.73868C132.116 5.80934 132.628 5.58324 133.407 6.03988C133.595 6.15072 134.007 6.43889 134.111 6.64947C134.845 6.08865 133.79 6.20835 133.794 5.80048C134.626 6.09308 134.561 5.19311 135.058 5.58324L135.413 4.75864L136.344 4.73425L135.282 5.58103L135.887 5.68299L135.9 6.1219C137.113 6.66055 136.457 5.58324 137.193 5.58103L136.559 4.94927C137.878 5.41921 137.135 4.87834 137.623 4.41948C137.74 4.30865 138.585 4.01826 138.684 4.09806L137.831 5.47684L138.469 5.37044L138.68 6.00884C138.547 5.30394 139.414 5.91353 139.768 5.4458L139.746 4.31086C139.957 4.31086 140.174 4.29313 140.385 4.31086C140.345 4.61676 140.58 5.17759 140.385 5.58546L141.019 4.94927L141.214 5.92461L140.808 6.01549L141.127 6.43666L141.535 6.03101L142.078 6.22386C141.961 5.82043 141.885 5.57216 142.231 5.31281L142.506 5.58546C143.388 5.08448 144.087 5.72733 144.749 5.7761C144.816 5.78053 145.259 5.02907 145.804 5.0335C146.013 5.0335 146.605 5.54999 146.877 5.58103C146.979 5.59211 146.97 5.25517 147.121 5.15542C147.6 4.84065 148.159 5.19975 148.673 5.16207L147.824 5.79604C148.943 5.58768 149.919 5.70294 151.014 6.00884L150.373 5.05567L150.909 5.15764L150.914 5.14877Z" fill="#FFC627"/>
<path d="M101.05 7.49325V7.91885L102.112 8.12944C102.316 8.03634 101.181 7.36912 101.05 7.49325Z" fill="#FFC627"/>
<path d="M7.48786 17.7069L8.33686 17.3877C8.16174 17.3301 7.9711 17.1017 7.91125 17.0685C7.77603 17.0862 7.6253 17.0508 7.48565 17.0685H7.48786V17.7069Z" fill="#FFC627"/>
<path d="M73.2232 12.1516C73.1257 12.094 73.0703 11.4645 72.6203 11.3536L71.277 11.5398C71.5496 12.4553 72.2545 11.4667 72.3365 11.5398V12.5994C72.9062 12.4975 72.9417 12.708 73.1877 13.1359L72.126 13.4506C73.2454 13.7831 73.0747 13.4196 73.6333 12.9497C73.8262 12.7878 74.2274 12.7745 74.367 12.6105C75.0719 11.7859 73.2919 12.1938 73.221 12.1539L73.2232 12.1516Z" fill="#FFC627"/>
<path d="M97.4341 9.83645V9.19583H96.7957L97.2213 9.83202L95.7339 9.61922C95.6319 10.2975 95.3615 10.6566 96.0531 11.111L95.7361 10.4704C95.6518 10.1712 96.4609 9.7766 96.6848 10.2687L96.9021 10.8982L98.0703 9.93842L97.4363 9.83645H97.4341Z" fill="#FFC627"/>
<path d="M59.478 13.4565L58.946 13.6671L59.161 14.0883C58.5957 14.2346 58.394 13.7292 57.9906 13.5519C57.1083 13.1639 57.2701 14.3211 57.5916 14.2856C57.7733 14.2656 57.9861 14.095 58.1746 14.1326C58.4583 14.1903 58.5957 14.627 58.8396 14.658C58.9393 14.6713 59.2652 14.2812 59.5821 14.5139L59.3893 13.9686L59.795 13.8733L59.478 13.4543V13.4565Z" fill="#FFC627"/>
<path d="M64.6846 14.3013L63.942 13.8824C63.5008 13.8624 64.3055 14.6915 64.3587 14.6937C65.3363 14.707 65.4205 14.2858 65.5269 13.4701L64.6868 13.2396V14.3013H64.6846Z" fill="#FFC627"/>
<path d="M76.8054 12.3892L76.1692 12.602C76.0406 13.5419 77.0692 12.7107 76.8054 12.3892Z" fill="#FFC627"/>
<path d="M75.7858 12.5702L76.1693 12.6012L76.4951 11.9606L76.269 11.5372L74.8947 11.75L75.1119 12.599C75.6993 12.7785 75.4289 12.2399 75.6417 12.1712C76.1981 11.9916 75.7636 12.5458 75.7902 12.568H75.7858V12.5702Z" fill="#FFC627"/>
<path d="M52.1894 12.9799C52.0187 12.6651 52.6726 11.927 51.7172 11.9647L51.9101 12.9068L51.2939 13.4498L52.1428 13.7846C53.0761 12.9755 52.2426 13.0752 52.1916 12.9799H52.1894Z" fill="#FFC627"/>
<path d="M44.4862 13.8808H43.4222L43.5862 14.2709L43.2116 14.4084C43.9076 15.2573 44.2956 14.6633 45.1224 14.5125L44.0606 14.2997L44.484 13.8786H44.4862V13.8808Z" fill="#FFC627"/>
<path d="M103.572 10.9807C103.439 11.3864 102.783 11.1292 102.965 11.7499L103.643 11.3908L104.024 11.5371V10.0453C103.311 9.89009 103.718 10.5418 103.574 10.9807H103.572Z" fill="#FFC627"/>
<path d="M36.6189 15.1526L37.0422 15.3632L36.4083 16.0061C36.9868 15.5494 36.7652 16.2721 36.9358 16.2189L37.4678 15.6868L37.255 15.2568L38.3191 15.1526C37.9688 14.4433 36.9048 14.3546 36.6189 15.1526Z" fill="#FFC627"/>
<path d="M70.4302 12.1762L70.9644 12.8102C71.1484 13.8432 68.8963 12.0742 68.945 12.921C68.9628 13.2358 70.357 13.4619 70.7029 13.4153C70.991 13.3754 72.177 12.3735 71.9154 12.1784H70.4302V12.1762Z" fill="#FFC627"/>
<path d="M98.4955 12.067L99.4354 12.6145C99.4464 12.3463 100.488 11.7855 100.196 11.5372L98.4977 12.067H98.4955Z" fill="#FFC627"/>
<path d="M95.3062 10.0507C94.7719 9.69601 94.5614 11.0726 95.0934 11.2189L94.67 11.5359L95.7318 11.2167C94.9892 11.2167 95.366 10.0884 95.3062 10.0507Z" fill="#FFC627"/>
<path d="M106.678 8.55983L106.574 8.13645L106.148 8.24285C106.159 8.84357 106.964 9.00317 107.425 8.7682V8.13423L106.678 8.56205V8.55983Z" fill="#FFC627"/>
<path d="M60.5552 13.6784C59.3582 13.9954 61.7146 14.5872 61.7057 13.9843C61.4375 13.5964 60.9542 13.572 60.5552 13.6784Z" fill="#FFC627"/>
<path d="M97.219 11.7481L98.4959 11.5397C98.057 11.6084 97.0683 10.8924 97.219 11.7481Z" fill="#FFC627"/>
<path d="M114.445 8.13235C114.274 8.90598 115.334 8.45377 115.719 8.55795V7.91954L114.445 8.13235Z" fill="#FFC627"/>
<path d="M103.599 9.40629L104.661 8.77232L103.814 8.55508L103.599 9.40629Z" fill="#FFC627"/>
<path d="M50.0167 13.5594C50.3558 13.433 50.859 14.3219 51.0784 14.0891C51.3356 13.8143 50.276 12.8899 50.0167 13.5594Z" fill="#FFC627"/>
<path d="M75.7458 13.4548V13.6632H77.0204C76.7943 13.0093 76.2512 13.3152 75.7458 13.4548Z" fill="#FFC627"/>
<path d="M56.394 13.4526L56.609 14.3016C57.0324 14.1885 57.0856 13.8494 57.0301 13.4526H56.394Z" fill="#FFC627"/>
<path d="M107.639 10.2627L107.852 10.8988C108.253 10.9676 108.557 10.6506 108.488 10.2627H107.639Z" fill="#FFC627"/>
<path d="M21.6718 15.517C21.5499 15.6633 21.2263 15.455 21.3105 15.7919L22.0597 15.588L22.1595 14.9451C21.4967 14.7922 21.8713 15.2776 21.6718 15.5193V15.517Z" fill="#FFC627"/>
<path d="M100.409 10.8983C100.44 10.9848 100.364 11.151 100.44 11.2663L101.258 11.3239V10.475C100.506 10.424 101.202 10.823 100.409 10.8983Z" fill="#FFC627"/>
<path d="M100.285 10.457L99.5597 10.8959C99.839 10.8826 100.132 10.9247 100.409 10.8959C100.369 10.7873 100.502 10.5346 100.285 10.4548V10.457Z" fill="#FFC627"/>
<path d="M49.2723 14.0917C49.3831 13.9543 49.4319 13.7149 49.3765 13.6661C48.6095 12.9834 48.4898 15.056 49.2723 14.0917Z" fill="#FFC627"/>
<path d="M152.082 5.15385C151.725 5.61492 152.22 6.30874 152.503 6.00284C152.645 5.84988 152.441 5.15606 152.082 5.15385Z" fill="#FFC627"/>
<path d="M46.1885 13.0267V13.4501L47.2503 13.6629C47.3944 13.5498 46.4856 12.9026 46.1885 13.0267Z" fill="#FFC627"/>
<path d="M111.04 8.34292V7.70673C109.726 7.48063 110.776 8.62887 111.04 8.34292Z" fill="#FFC627"/>
<path d="M35.1319 15.1549V15.5805L36.1937 15.5783L36.1915 15.37L35.1319 15.1549Z" fill="#FFC627"/>
<path d="M49.1655 13.0252H49.5866L49.8017 12.1762H49.3783L49.1655 13.0252Z" fill="#FFC627"/>
<path d="M25.9924 15.262L26.3072 15.5767L26.8392 14.945C26.449 14.894 26.2185 14.9317 25.9924 15.262Z" fill="#FFC627"/>
<path d="M47.6785 13.4526L47.4657 14.7272C48.0044 14.5631 47.9002 13.9181 47.8869 13.4526H47.6785Z" fill="#FFC627"/>
<path d="M105.724 10.6838L105.088 9.83484C105.004 10.3447 105.188 10.7392 105.724 10.6838Z" fill="#FFC627"/>
<path d="M129.117 6.21719L128.902 6.85338C129.29 6.92653 129.607 6.62063 129.538 6.21719H129.117Z" fill="#FFC627"/>
<path d="M40.2372 14.7329L40.5542 15.1497C40.8823 14.9236 40.9222 14.693 40.8712 14.3029L40.2372 14.7329Z" fill="#FFC627"/>
<path d="M54.056 14.5164V14.9398H54.905C54.792 14.5164 54.4528 14.461 54.056 14.5164Z" fill="#FFC627"/>
<path d="M117.846 7.28044H117.422V7.91664H117.846V7.28044Z" fill="#FFC627"/>
<path d="M74.6817 12.8142V13.2376H75.5307C75.4176 12.8142 75.0785 12.7588 74.6817 12.8142Z" fill="#FFC627"/>
<path d="M31.5182 16.4324L32.1521 15.7962L31.516 15.794L31.5182 16.4324Z" fill="#FFC627"/>
</svg>
